<svg width="100px" height="100px" viewBox="0 0 100 100" version="1.1" xmlns="http://www.w3.org/2000/svg" xmlns:xlink="http://www.w3.org/1999/xlink">
    <defs>
        <polygon id="path-xjh3l7jcun-1" points="0 0 42 0 42 25 0 25"></polygon>
        <polygon id="path-xjh3l7jcun-3" points="0 0 36 0 36 31 0 31"></polygon>
    </defs>
    <g id="Comp---CTA-Footer-section" stroke="none" stroke-width="1" fill="none" fill-rule="evenodd">
        <g id="CTA---Footer" transform="translate(-361, -38.5)">
            <g id="Group-17" transform="translate(361, 38.5)">
                <circle id="Oval" fill="#DAE5FC" cx="50" cy="50" r="50"></circle>
                <path d="M40.7891617,49.4904949 C39.7326611,46.5712932 39.4767146,41.6440932 39.332384,38.1230075 L40.8622893,36.1104983 C42.267108,34.2629594 44.4525954,33.1152556 46.7779232,32.9837948 C49.8370923,35.8559542 53.7949606,37.7531131 57.9767018,38.3421088 L59.6502964,38.5779648 C59.5380392,40.9197703 59.3096759,43.2699532 58.9825264,45.4313224 C58.9818849,45.4319668 58.9818849,45.4332556 58.9818849,45.4339 C58.8779668,46.1285798 58.7958587,46.5758041 58.5860981,47.8253255 C57.9843995,51.3870093 55.2902266,54.6084418 51.7345598,55.4854912 C50.2707259,55.8457194 48.7292741,55.8457194 47.2660816,55.4854912 C45.0459549,54.9377381 42.351782,53.0624893 41.4877223,50.9307633 M62,35.2134721 C61.9185333,29.0206402 56.8073025,24 50.5170503,24 L48.4829497,24 C42.193339,24 37.0821081,29.0206402 37,35.2134721 C37,35.2134721 37.0243758,37.2221148 37.0320735,37.4560376 C37.0359223,37.5733212 37.0397711,37.6906048 37.0442614,37.8091772 C37.0442614,37.8130437 37.0442614,37.8169102 37.0449029,37.8207767 L37.0449029,37.8220655 C37.1244451,40.0730085 37.3143202,42.3613275 37.5965669,44.5207634 C37.7614246,45.8920794 37.9301311,46.763329 37.9301311,46.763329 L38.1719652,48.1945755 C38.218151,48.4665188 38.366972,49.2211292 38.4330434,49.4904949 C38.5972596,50.2715263 38.9244092,50.9307633 38.9244092,50.9307633 C39.417058,51.9869601 40.2631565,53.2828794 41.0393349,54.161862 C41.2003438,54.3442315 41.3684089,54.5214458 41.5403228,54.6935047 C42.8040182,55.9050056 44.6649219,57.0056671 47.131373,57.7551222 C47.9107587,57.9168704 48.7055397,58 49.5003207,58 C50.1219049,58 50.7434891,57.9484468 51.3586586,57.8485624 C54.0444923,57.2363678 55.7758192,56.3200091 57.4590357,54.690927 C59.2063993,52.9368283 60.4194186,50.6149997 60.8280348,48.1939311 L61.0698689,46.763329 C61.0698689,46.763329 61.3245324,45.1548682 61.4040746,44.5207634 C61.692736,42.3129963 61.8851769,39.9634579 61.9627948,37.6493622 C61.9653606,37.5836318 61.9666436,37.5204791 61.968568,37.4560376 C61.968568,37.4560376 62,36.5525672 62,35.2134721" id="Fill-1" fill="#002B5C"></path>
                <g id="Group-5" transform="translate(29, 55)">
                    <mask id="mask-xjh3l7jcun-2" fill="white">
                        <use xlink:href="#path-xjh3l7jcun-1"></use>
                    </mask>
                    <g id="Clip-4"></g>
                    <path d="M26.5778627,0.0817619705 L26.5778627,1.85305841 L26.5778627,2.18585518 C28.8601353,2.93959834 40.0899183,6.88014206 40.8945054,11.2601564 L40.8663292,11.2601564 C41.4743091,14.5140273 41.9789763,23.4925137 41.9977604,23.8744954 C42.0353287,24.4659921 41.5957799,24.9623128 41.0159762,25 L40.9596238,25 C40.4079963,25 39.9402713,24.5611682 39.9120951,23.9888344 C39.9120951,23.8930196 39.3980359,14.7714497 38.8176061,11.6510808 C38.4062335,9.40901426 31.447337,6.10723593 26.3781247,4.36149011 L26.0074511,4.57803158 L21.620729,7.29342327 C21.4147297,7.42692524 21.1905723,7.4460882 20.9751809,7.42692524 C20.7604156,7.4460882 20.5356321,7.41734376 20.3296327,7.29342327 L15.9053424,4.55503603 L15.621702,4.36149011 C10.5524896,6.09765445 3.59359317,9.39943278 3.18222058,11.6510808 C2.61180896,14.7714497 2.08773155,23.8930196 2.08773155,23.9888344 C2.05078942,24.5611682 1.59245649,25 1.04020287,25 L0.984476598,25 C0.414064984,24.9712556 -0.0355020181,24.4659921 0.00206625502,23.8744954 C0.0208503916,23.4925137 0.535535734,14.5140273 1.13412355,11.2697379 C1.9380846,6.88014206 13.1904085,2.93001686 15.4351129,2.18585518 L15.4351129,1.66270632 L15.4351129,0 L17.6359875,1.44105473 L17.6359875,2.96131637 L17.6084375,3.09481834 L20.9902082,5.19188512 L20.9814423,5.20146661 L21.121071,5.19188512 L24.5028417,3.09481834 L24.4752917,1.94951198 L24.4752917,1.44105473 L26.5778627,0.0817619705 Z" id="Fill-3" fill="#002B5C" mask="url(#mask-xjh3l7jcun-2)"></path>
                </g>
                <path d="M48.372,47.4815 C48.454,47.4955 48.543,47.5055 48.628,47.5185 C48.543,47.5055 48.457,47.4975 48.372,47.4815" id="Fill-6" fill="#002B5C"></path>
                <path d="M48.334,47.4655 C48.445,47.4885 48.555,47.5145 48.666,47.5345 C48.548,47.5135 48.446,47.4885 48.334,47.4655" id="Fill-8" fill="#002B5C"></path>
                <g id="Group-12" transform="translate(32, 19)">
                    <mask id="mask-xjh3l7jcun-4" fill="white">
                        <use xlink:href="#path-xjh3l7jcun-3"></use>
                    </mask>
                    <g id="Clip-11"></g>
                    <path d="M29.8927759,24.8573273 L32.7780786,24.8573273 C35.2123903,24.8573273 35.9480126,24.3493063 35.9480126,22.4669482 L36,18.4936621 C36,17.5979238 35.3410592,16.9852911 34.4741687,16.9852911 C34.4722192,16.9604458 34.4702697,15.0028979 34.46897,14.9780526 C33.8405719,6.13639604 27.0016246,-0.000392294162 17.8908264,-0.000392294162 C8.74558648,-0.000392294162 2.40961768,6.13312692 1.80136467,15.01009 C1.80006498,15.0257817 1.7987653,17.0022905 1.79811546,17.0173284 C0.636846096,17.0173284 0,17.88626 0,18.9774916 L0,22.4669482 C0,23.8700536 0.656341384,24.7128322 3.36748619,24.7128322 L3.36748619,28.0081032 C3.36748619,29.8898075 4.2616701,31 6.1663598,31 L7.17751543,31 L9.77428788,31 L16.556049,31 L16.5365537,29.5387042 L9.0666089,29.5387042 L6.67908589,29.5387042 L6.47113614,29.5387042 C5.40149464,29.5387042 4.89786635,29.3052892 4.89786635,27.9100297 L4.89786635,24.8109058 L5.86938157,24.8109058 C5.43333694,21.9543505 5.24943139,17.0147131 5.24943139,17.0147131 L3.45716452,17.0147131 C3.45781436,17.004252 3.45911405,15.0316662 3.45976389,15.021205 C4.05696957,7.41200589 10.0010831,1.62174406 17.8908264,1.62174406 C25.7285823,1.62174406 32.1789234,7.38585294 32.8086212,14.9708606 C32.8105708,14.9983211 32.8131702,16.9578305 32.8151197,16.9852911 L30.5276725,16.9852911 C30.3450666,21.2979116 30.1429655,22.8507426 29.8927759,24.8573273" id="Fill-10" fill="#477EF0" mask="url(#mask-xjh3l7jcun-4)"></path>
                </g>
                <path d="M47.0102831,50.8581468 C47.2074764,51.5489459 47.8589402,52 48.8594241,52 L50.1157755,52 C51.1567868,52 52,51.3288119 52,50.5002451 C52,49.6731492 51.1543673,49 50.1157755,49 L48.8594241,49 C47.7603436,49 47.1832809,49.4966498 47,50.2158849" id="Fill-13" fill="#477EF0"></path>
                <path d="M51.826233,78.2353663 C51.482802,74.1982538 51.0716331,72.113652 50.667238,67.749518 C51.1651114,66.8146212 52.0931203,66.4927295 52.7237599,65.6078478 C53.1132526,65.0608883 53.0881896,64.3395173 52.6655053,63.8156417 L50.8812897,61.6047198 C50.2411668,60.8115324 48.9846292,60.7961431 48.3228302,61.5733001 L46.360464,63.8765574 C45.9371023,64.3735019 45.8815572,65.0666592 46.220924,65.6181073 L48.1622914,67.749518 C48.1622914,67.749518 47.5594244,72.0662018 46.9382681,78.2071527 C46.8414029,79.1651333 47.6386777,80 48.6547458,80 L50.1070458,80 C51.1129532,80 51.9068411,79.1837287 51.826233,78.2353663" id="Fill-15" fill="#477EF0"></path>
            </g>
        </g>
    </g>
</svg>