<?xml version="1.0" encoding="UTF-8"?>
<svg width="57px" height="57px" viewBox="0 0 57 57" version="1.1" xmlns="http://www.w3.org/2000/svg" xmlns:xlink="http://www.w3.org/1999/xlink">
    <title>57x57_Carepoint™ TV Kits__Icon Card Row_Increase workforce efficiency - white circles</title>
    <defs>
        <polygon id="path-1" points="0 0 29 0 29 20 0 20"></polygon>
    </defs>
    <g id="57x57_Carepoint™-TV-Kits__Icon-Card-Row_Increase-workforce-efficiency---white-circles" stroke="none" stroke-width="1" fill="none" fill-rule="evenodd">
        <circle id="Oval" fill="#FFFFFF" cx="28.3811833" cy="28.3808141" r="28.5"></circle>
        <g id="Group-14" transform="translate(14.000000, 18.000000)">
            <path d="M20.6393667,7.22470062 L18.6405955,9.14839561 L17.3606333,7.91655103 C17.0495747,7.61722431 16.5448488,7.61722431 16.2335066,7.91655103 C15.9221645,8.21615186 15.9221645,8.70187251 16.2335066,9.00147333 L18.0768904,10.775505 C18.3882325,11.0748317 18.8929584,11.0748317 19.204017,10.775505 L21.7664934,8.30934882 C22.0778355,8.00974799 22.0778355,7.52430145 21.7664934,7.22470062 C21.4554348,6.92509979 20.9507089,6.92509979 20.6393667,7.22470062" id="Fill-1" fill="#477EF0" fill-rule="nonzero"></path>
            <g id="Fill-3-Clipped">
                <mask id="mask-2" fill="white">
                    <use xlink:href="#path-1"></use>
                </mask>
                <g id="path-1"></g>
                <path d="M12.8602108,1.85780065 C12.8492042,1.85750107 12.8385034,1.85630278 12.8274969,1.85630278 L6.81701542,1.85630278 C6.34770929,1.85630278 5.9673726,2.22837364 5.9673726,2.68732096 C5.9673726,3.1459687 6.34770929,3.51803956 6.81701542,3.51803956 L11.0074452,3.51803956 C9.6297948,5.09349904 8.77373151,7.06888977 8.59732132,9.1742956 L3.66731399,9.1742956 C3.1983136,9.1742956 2.81767117,9.54636646 2.81767117,10.0053138 C2.81767117,10.4642611 3.1983136,10.836332 3.66731399,10.836332 L8.59732132,10.836332 C8.77342577,12.9384425 9.6273489,14.9147319 11.0074452,16.492588 L0.849642815,16.492588 C0.38033669,16.492588 0,16.8646589 0,17.3236062 C0,17.7825535 0.38033669,18.1543248 0.849642815,18.1543248 C0.960931043,18.1543248 12.7923372,18.1552235 12.8602108,18.1528269 C14.5784521,19.3517219 16.6351441,20 18.7811114,20 C24.4629257,20 29.0000611,15.4869182 29.0000611,10.0053138 C29.0000611,1.85390618 19.5613519,-2.81555322 12.8602108,1.85780065 M18.7811114,18.3379636 C14.1106746,18.3379636 10.2614472,14.6490098 10.2614472,10.0053138 C10.2614472,7.69799509 11.2046455,5.55154763 12.9167721,3.96110946 C18.3084421,-1.04896554 27.3007755,2.67653629 27.3007755,10.0053138 C27.3007755,14.589095 23.5056635,18.3379636 18.7811114,18.3379636" id="Fill-3" fill="#002B5C" fill-rule="nonzero" mask="url(#mask-2)"></path>
            </g>
            <path d="M20,5 C20,5.55240245 19.5524025,6 19,6 C18.4475975,6 18,5.55240245 18,5 C18,4.44759755 18.4475975,4 19,4 C19.5524025,4 20,4.44759755 20,5" id="Fill-6" fill="#477EF0" fill-rule="nonzero"></path>
            <path d="M20,16 C20,16.5524025 19.5524025,17 19,17 C18.4475975,17 18,16.5524025 18,16 C18,15.4475975 18.4475975,15 19,15 C19.5524025,15 20,15.4475975 20,16" id="Fill-8" fill="#477EF0" fill-rule="nonzero"></path>
            <path d="M24,9 C23.4475975,9 23,9.44759755 23,10 C23,10.5524025 23.4475975,11 24,11 C24.5524025,11 25,10.5524025 25,10 C25,9.44759755 24.5524025,9 24,9" id="Fill-10" fill="#477EF0" fill-rule="nonzero"></path>
            <path d="M13.987001,9.84000451 C14.0752066,10.3851278 13.7051973,10.8984712 13.1600739,10.987001 C12.6149506,11.0752066 12.101283,10.7051973 12.0130774,10.1600739 C11.9245476,9.61495062 12.2948812,9.10128296 12.8400045,9.0130774 C13.3851278,8.92454756 13.8984712,9.29488119 13.987001,9.84000451" id="Fill-12" fill="#477EF0" fill-rule="nonzero"></path>
        </g>
    </g>
</svg>