<?xml version="1.0" encoding="UTF-8"?>
<svg width="57px" height="57px" viewBox="0 0 57 57" version="1.1" xmlns="http://www.w3.org/2000/svg" xmlns:xlink="http://www.w3.org/1999/xlink">
    <title>57x57_Extra icon__Icon Card Row_ deliver-personalized-care</title>
    <defs>
        <polygon id="path-1" points="0 0 12.4874925 0 12.4874925 17.3053108 0 17.3053108"></polygon>
    </defs>
    <g id="57x57_Extra-icon__Icon-Card-Row_-deliver-personalized-care" stroke="none" stroke-width="1" fill="none" fill-rule="evenodd">
        <circle id="Oval" fill="#FFFFFF" cx="28.3811833" cy="28.3808141" r="28.5"></circle>
        <g id="Group-10" transform="translate(15.047157, 14.334920)">
            <g id="Fill-1-Clipped" transform="translate(0.000000, 11.194689)">
                <mask id="mask-2" fill="white">
                    <use xlink:href="#path-1"></use>
                </mask>
                <g id="path-1"></g>
                <path d="M8.64080456,8.14021353 C8.33140935,8.07725532 8.00880823,8.03099056 7.68290567,8.0009423 C7.40416698,7.97518664 7.14712369,7.85594755 6.95893971,7.66564201 L4.94928576,5.63285415 C4.63234433,5.31329342 4.22720639,5.13061915 3.81216403,5.07720004 L3.34429811,1.47617982 C3.23487785,0.634828863 2.51892979,0 1.67894066,0 C0.75311322,0 -9.4327808e-05,0.761222289 -9.4327808e-05,1.69748755 L-9.4327808e-05,8.87663408 C-9.4327808e-05,9.50764731 0.228178968,10.1148127 0.642278046,10.5860455 L3.87536367,14.2638557 C4.01261063,14.4198205 4.20268116,14.4989952 4.39416662,14.4989952 C4.55782536,14.4989952 4.72242739,14.4408065 4.85448632,14.3220444 C5.14124286,14.0644879 5.16671136,13.6209186 4.91249792,13.3314062 L1.6794123,9.65359595 C1.49122832,9.43944254 1.38746774,9.16376182 1.38746774,8.87663408 L1.38746774,1.69748755 C1.38746774,1.53484544 1.51858338,1.40272854 1.6794123,1.40272854 C1.82514876,1.40272854 1.94918983,1.51290545 1.96852703,1.65885408 L2.45950327,5.43634815 C2.44865558,5.4444564 2.43686459,5.44970292 2.42648853,5.45828814 C2.02040732,5.79358844 1.77279683,6.28819213 1.74685668,6.81522887 C1.72091653,7.34226562 1.91759001,7.85880931 2.28641174,8.23178916 L5.50534819,11.487493 C5.776069,11.7612659 6.21563658,11.7612659 6.4863574,11.487493 C6.75754985,11.2132431 6.75754985,10.7691968 6.4863574,10.4949469 L3.26742095,7.23971998 C3.17403641,7.14528267 3.12592923,7.01888922 3.13253218,6.88534145 C3.1363053,6.80807453 3.164132,6.66069502 3.30515207,6.54431768 C3.48201671,6.39836904 3.7791493,6.43509469 3.96827657,6.62540025 L5.97793052,8.65771112 C6.39485943,9.07981749 6.95563825,9.34262041 7.55792127,9.39842434 C7.8347734,9.42322604 8.10738075,9.46281339 8.36725387,9.51623251 C9.95054614,9.83817806 11.0999306,11.2800169 11.0999306,12.9455484 L11.0999306,16.6038035 C11.0999306,16.991569 11.4107407,17.3054062 11.7937115,17.3054062 C12.1771541,17.3054062 12.4874925,16.991569 12.4874925,16.6038035 L12.4874925,12.9455484 C12.4874925,10.614186 10.8697707,8.59332207 8.64080456,8.14021353" id="Fill-1" fill="#002B5C" fill-rule="nonzero" mask="url(#mask-2)"></path>
            </g>
            <path d="M24.6829934,11.1944988 C23.8434759,11.1944988 23.1279995,11.8288506 23.0181075,12.6711555 L22.5502416,16.2712218 C22.1351993,16.3241639 21.7300613,16.5068382 21.4140632,16.8273529 L19.402051,18.8620486 C19.2143388,19.0518771 18.9587103,19.1701623 18.6813866,19.194964 C18.3389766,19.2269201 18.0083577,19.2755697 17.6975476,19.3394818 C15.4827306,19.7973599 13.8749131,21.816316 13.8749131,24.1395702 L13.8749131,27.7987792 C13.8749131,28.1860676 14.1857232,28.499905 14.5686942,28.499905 C14.9521366,28.499905 15.2624752,28.1860676 15.2624752,27.7987792 L15.2624752,24.1395702 C15.2624752,22.4797622 16.4033701,21.0393541 17.9748713,20.7145469 C18.2361593,20.6606508 18.5163128,20.6196326 18.8073142,20.5924461 C19.4062957,20.5375961 19.9661314,20.2757471 20.3830603,19.8541177 L22.3950724,17.819422 C22.583728,17.6281625 22.880389,17.5928678 23.0577253,17.7392933 C23.1987453,17.8556707 23.2261004,18.0025732 23.2298736,18.0803171 C23.2364764,18.2138649 23.1888409,18.3397814 23.0949848,18.4346957 L19.8760483,21.6899226 C19.6048558,21.9636955 19.6048558,22.4082188 19.8760483,22.6819917 C20.1467691,22.9557647 20.5858651,22.9557647 20.8570575,22.6819917 L24.0764656,19.4267649 C24.4452873,19.0537849 24.6419608,18.5372412 24.615549,18.0097276 C24.5896089,17.4831678 24.3419983,16.9880872 23.9363888,16.6527868 C23.9260128,16.6442016 23.9137501,16.6389551 23.9033741,16.6308468 L24.3938787,12.8538297 C24.4127442,12.7078811 24.5372569,12.5972272 24.683465,12.5972272 C24.844294,12.5972272 24.9754096,12.7298211 24.9754096,12.8924632 L24.9754096,20.0711328 C24.9754096,20.3582605 24.8711774,20.6339413 24.6829934,20.8480946 L21.4503794,24.5259049 C21.1956942,24.8158943 21.2216344,25.2589867 21.5079194,25.5165431 C21.6399783,25.6353053 21.8045803,25.6934939 21.9687107,25.6934939 C22.1597246,25.6934939 22.3502667,25.6138422 22.4875137,25.4583545 L25.7201276,21.7805442 C26.1346984,21.3093114 26.3625,20.7026229 26.3625,20.0711328 L26.3625,12.8924632 C26.3625,11.956198 25.6092925,11.1944988 24.6829934,11.1944988" id="Fill-4" fill="#002B5C" fill-rule="nonzero"></path>
            <path d="M16.1595326,4.28640646 C16.1595326,5.94335272 14.8266808,7.29075429 13.1882066,7.29075429 C11.5502043,7.29075429 10.2178241,5.94335272 10.2178241,4.28640646 C10.2178241,2.62993716 11.5502043,1.28253555 13.1882066,1.28253555 C14.8266808,1.28253555 16.1595326,2.62993716 16.1595326,4.28640646 M13.1882066,0 C10.8512352,0 8.9495866,1.92261093 8.9495866,4.28640646 C8.9495866,6.65020198 10.8512352,8.5728129 13.1882066,8.5728129 C15.5256498,8.5728129 17.4272984,6.65020198 17.4272984,4.28640646 C17.4272984,1.92261093 15.5256498,0 13.1882066,0" id="Fill-6" fill="#477EF0" fill-rule="nonzero"></path>
            <path d="M19.2053775,15.0347125 L7.17150744,15.0347125 C7.38657485,12.9465977 8.64537945,11.1169933 10.514485,10.1869284 C11.2672209,10.8079256 12.2104989,11.1479955 13.1886783,11.1479955 C14.166386,11.1479955 15.1096642,10.8079256 15.8628717,10.1869284 C17.7315055,11.1169933 18.9903101,12.9465977 19.2053775,15.0347125 M15.987856,8.83809603 C15.7492067,8.7369813 15.4780142,8.79278516 15.2954899,8.97832116 C14.7332962,9.55019182 13.9852766,9.86545996 13.1886783,9.86545996 C12.3925516,9.86545996 11.6440605,9.55019182 11.0818668,8.9787981 C10.8993424,8.79183126 10.6272067,8.73745825 10.389029,8.83809603 C7.64408974,9.98803768 5.87072696,12.6723479 5.87072696,15.6762187 C5.87072696,16.0296434 6.1551253,16.3167711 6.50460983,16.3167711 L19.8727468,16.3167711 C20.2222314,16.3167711 20.5066297,16.0296434 20.5066297,15.6762187 C20.5066297,12.6723479 18.7327952,9.98803768 15.987856,8.83809603" id="Fill-8" fill="#477EF0" fill-rule="nonzero"></path>
        </g>
    </g>
</svg>