<?xml version="1.0" encoding="UTF-8"?>
<svg width="57px" height="57px" viewBox="0 0 57 57" version="1.1" xmlns="http://www.w3.org/2000/svg" xmlns:xlink="http://www.w3.org/1999/xlink">
    <title>57x57_Working here_Icon Card Row_Deliver Awesome - - white circles</title>
    <defs>
        <polygon id="path-1" points="0 0 27 0 27 13 0 13"></polygon>
        <polygon id="path-3" points="6.42667234e-16 3.57775706e-16 22 3.57775706e-16 22 19 6.42667234e-16 19"></polygon>
    </defs>
    <g id="57x57_Working-here_Icon-Card-Row_Deliver-Awesome-----white-circles" stroke="none" stroke-width="1" fill="none" fill-rule="evenodd">
        <circle id="Oval" fill="#FFFFFF" cx="28.3811833" cy="28.3808141" r="28.5"></circle>
        <g id="deliver-awesome" transform="translate(16.000000, 13.000000)">
            <g id="Path-Clipped" transform="translate(0.000000, 17.000000)">
                <mask id="mask-2" fill="white">
                    <use xlink:href="#path-1"></use>
                </mask>
                <g id="path-1"></g>
                <path d="M26.7106126,0.861096129 C25.5383242,-0.287082296 23.6309455,-0.287006917 22.4586956,0.861096129 L19.7441493,3.51983926 C19.5357288,3.72392888 19.5357288,4.05484427 19.7441493,4.25893389 C19.9525698,4.46309889 20.2904065,4.46309889 20.4987885,4.25893389 L23.2134888,1.60022845 C23.579764,1.24153576 24.0667199,1.04392877 24.5846926,1.04392877 C25.0762279,1.04392877 25.539825,1.22182406 25.898827,1.54652066 L19.1853083,8.12178694 C18.9490266,8.3531639 18.6350104,8.48055499 18.3009835,8.48055499 L11.0658747,8.48055499 C10.5115746,8.48055499 9.99044642,8.69195641 9.59854196,9.07582582 L8.15410624,10.490508 L5.0916023,7.49112549 L8.44095381,4.61457372 C9.18363359,3.97647693 10.1379173,3.62470258 11.1258687,3.62484271 L17.3766369,3.62484271 C17.734523,3.62484271 18.0258345,3.91007821 18.0258345,4.26066762 C18.0258345,4.61125703 17.734523,4.89645484 17.3766369,4.89645484 L12.7191158,4.89645484 C12.4244178,4.89645484 12.1854808,5.13047006 12.1854808,5.41917302 C12.1854808,5.70783828 12.4244178,5.94181582 12.7191543,5.94181582 L17.3766369,5.94181582 C18.3231108,5.94181582 19.09322,5.18764531 19.09322,4.26066762 C19.09322,3.33368993 18.3231108,2.57951942 17.3766369,2.57951942 L11.1259072,2.57951942 C9.87899125,2.57932307 8.67455486,3.023257 7.73714975,3.82855543 L4.33530829,6.75037253 L3.55973462,5.9908124 C3.35139107,5.78672279 3.01347738,5.78672279 2.80505687,5.9908124 L0.15623842,8.58499308 C-0.0521436105,8.78912039 -0.0521436105,9.12007349 0.15623842,9.32416311 C0.364658932,9.52829042 0.702611103,9.52829042 0.911031611,9.32416311 L3.1823765,7.09960509 L9.05051454,12.8469045 C9.15051552,12.9450897 9.28635063,13.0001872 9.42794961,13.0000009 C9.56448508,13.0000009 9.70109747,12.9489681 9.8053077,12.8469045 C10.0137282,12.6427772 10.0137282,12.3118618 9.8053077,12.1077345 L8.908784,11.229678 L10.3532582,9.81495815 C10.5435535,9.62858269 10.7965751,9.52587832 11.0658362,9.52587832 L18.3009065,9.52587832 C18.9200493,9.52587832 19.5021337,9.28979012 19.939986,8.86103236 L26.7105357,2.22979688 C26.8972521,2.04700193 27.0000385,1.80390349 27.0000385,1.54542766 C27.0000385,1.28687645 26.8972521,1.04385339 26.7106126,0.861058441" id="Path" fill="#002B5C" fill-rule="nonzero" mask="url(#mask-2)"></path>
            </g>
            <g id="Path-Clipped" transform="translate(5.000000, 0.000000)">
                <mask id="mask-4" fill="white">
                    <use xlink:href="#path-3"></use>
                </mask>
                <g id="path-3"></g>
                <path d="M5.15386267,13.8586067 L4.35525997,18.2725667 C4.29493634,18.6062193 4.50808747,18.9271781 4.83137494,18.9894285 C4.86831555,18.9965809 4.90510383,19.0000393 4.94135895,19.0000393 C5.22248842,19.0000393 5.47261825,18.793717 5.52608693,18.4981064 L6.38310909,13.7609475 C6.41967861,13.5589593 6.35599738,13.3514758 6.21341078,13.2080431 L1.87525014,8.84430789 L7.87040666,7.94537167 C8.06438421,7.91629719 8.23207693,7.79058512 8.31883519,7.60920393 L10.9999619,2.00313362 L13.6810125,7.60920393 C13.7677677,7.79060451 13.9354823,7.91632229 14.1294791,7.94537167 L20.1245975,8.84434719 L15.786475,13.2080824 C15.6437246,13.3516212 15.5800539,13.5593554 15.6168528,13.7614977 L16.1840626,16.8799112 C16.244729,17.2134458 16.5556775,17.4332478 16.8791935,17.3704865 C17.2024429,17.3078825 17.4153274,16.9867664 17.3546229,16.6531532 L16.8462135,13.8583709 L21.8200574,8.85531176 C21.9823609,8.69204478 22.0407699,8.4478499 21.9707258,8.22540089 C21.9006816,8.00295181 21.714332,7.84082761 21.4900291,7.80719473 L14.6105068,6.77558347 L11.5340013,0.342534237 C11.4337023,0.132720558 11.2266559,-0.000122179623 10.9999429,-0.000122179623 C10.7732299,-0.000122179623 10.5661835,0.132720558 10.4658845,0.342534237 L7.38934089,6.77554417 L0.509932766,7.80715542 C0.285623338,7.84077601 0.0992622284,8.00289541 0.0292092934,8.22534673 C-0.0408436414,8.44779805 0.0175613377,8.6920001 0.179866501,8.85527246 L5.15386267,13.8586067 Z" id="Path" fill="#477EF0" fill-rule="nonzero" mask="url(#mask-4)"></path>
            </g>
            <path d="M17.6778407,17.9905206 L15.6074041,17.0538972 C15.4425066,16.9792817 15.2490373,16.9822893 15.0869334,17.0619885 L13.3049624,17.9379949 C13.0250814,18.0756156 12.918544,18.3973993 13.0669773,18.6567641 C13.2154841,18.9161289 13.5626847,19.0148568 13.8426023,18.8773041 L15.3665575,18.1281073 L17.1745026,18.9459785 C17.252726,18.9815156 17.3386872,19 17.4258048,19 C17.638146,19 17.8422694,18.890189 17.9416897,18.7014704 C18.0807313,18.437618 17.962601,18.119336 17.6778407,17.9905206" id="Path" fill="#477EF0" fill-rule="nonzero"></path>
            <path d="M3.00002193,27 C2.44771995,27 2,27.4477199 2,27.9999781 C2,28.55228 2.44771995,29 3.00002193,29 C3.55232392,29 4,28.55228 4,27.9999781 C4,27.4476761 3.55232392,27 3.00002193,27" id="Path" fill="#002B5C" fill-rule="nonzero"></path>
        </g>
    </g>
</svg>