<?xml version="1.0" encoding="UTF-8"?>
<svg width="57px" height="57px" viewBox="0 0 57 57" version="1.1" xmlns="http://www.w3.org/2000/svg" xmlns:xlink="http://www.w3.org/1999/xlink">
    <title>57x57_Amwell Telestroke program_Icon Card Row_  Deliver effective care - White circle</title>
    <defs>
        <polygon id="path-1" points="0 0 21.4912281 0 21.4912281 1.91220845 0 1.91220845"></polygon>
    </defs>
    <g id="57x57_Amwell-Telestroke-program_Icon-Card-Row_--Deliver-effective-care---White-circle" stroke="none" stroke-width="1" fill="none" fill-rule="evenodd">
        <circle id="Oval" fill="#FFFFFF" cx="28.3811833" cy="28.3808141" r="28.5"></circle>
        <g id="80x80_icon_virtualvisits" transform="translate(11.000000, 11.000000)">
            <path d="M7.35280455,0 C3.29139731,0 0,3.29225806 0,7.35270969 L0,27.6468387 C0,31.7081936 3.29139731,35 7.35280455,35 L27.6471955,35 C31.7086027,35 35,31.7081936 35,27.6468387 L35,7.35270969 C35,3.29225806 31.7086027,0 27.6471955,0 L7.35280455,0 Z" id="Fill-1" fill="#F1F2F2" fill-rule="nonzero"></path>
            <g id="Group-14" transform="translate(6.754386, 5.526316)">
                <path d="M19.0364356,18.569817 L2.45464498,18.569817 C1.5639044,18.569817 0.839509165,17.8411978 0.839509165,16.9457191 L0.839509165,7.08655478 C0.839509165,6.19107613 1.5639044,5.46245685 2.45464498,5.46245685 L4.53672803,5.46245685 C4.83437923,5.46245685 5.07522959,5.70495915 5.07522959,6.00382283 C5.07522959,6.30268651 4.83437923,6.5451888 4.53672803,6.5451888 L2.45464498,6.5451888 C2.15773146,6.5451888 1.91614343,6.78806189 1.91614343,7.08655478 L1.91614343,16.9457191 C1.91614343,17.244212 2.15773146,17.4870851 2.45464498,17.4870851 L19.0364356,17.4870851 C19.3333491,17.4870851 19.5749371,17.244212 19.5749371,16.9457191 L19.5749371,7.08655478 C19.5749371,6.78806189 19.3333491,6.5451888 19.0364356,6.5451888 L16.7592379,6.5451888 C16.4619555,6.5451888 16.2207363,6.30268651 16.2207363,6.00382283 C16.2207363,5.70495915 16.4619555,5.46245685 16.7592379,5.46245685 L19.0364356,5.46245685 C19.9271761,5.46245685 20.6519402,6.19107613 20.6519402,7.08655478 L20.6519402,16.9457191 C20.6519402,17.8411978 19.9271761,18.569817 19.0364356,18.569817" id="Fill-1" fill="#002B5C" fill-rule="nonzero"></path>
                <g id="Fill-3-Clipped" transform="translate(0.000000, 19.579020)">
                    <mask id="mask-2" fill="white">
                        <use xlink:href="#path-1"></use>
                    </mask>
                    <g id="path-1"></g>
                    <path d="M21.0312887,0 L12.4429267,0 C12.4665322,0.062294167 12.4809168,0.129037917 12.4809168,0.199489654 L12.4809168,0.201714446 C12.4809168,0.514297677 12.2267884,0.769777921 11.9162279,0.769777921 L9.57522149,0.769777921 C9.264661,0.769777921 9.01016369,0.514297677 9.01016369,0.201714446 L9.01016369,0.199489654 C9.01016369,0.129037917 9.02491716,0.062294167 9.04815387,0 L0.460160641,0 C0.207138679,0 -0.000147534672,0.208018022 -0.000147534672,0.462385871 L-0.000147534672,1.44982258 C-0.000147534672,1.70419043 0.207138679,1.91220845 0.460160641,1.91220845 L21.0312887,1.91220845 C21.2843107,1.91220845 21.4912281,1.70419043 21.4912281,1.44982258 L21.4912281,0.462385871 C21.4912281,0.208018022 21.2843107,0 21.0312887,0" id="Fill-3" fill="#477EF0" fill-rule="nonzero" mask="url(#mask-2)"></path>
                </g>
                <path d="M8.75655159,9.99127988 C8.72999535,9.99127988 8.70307027,9.98868429 8.6761452,9.98238071 C8.48656314,9.94048047 8.36890424,9.75990154 8.41279581,9.57895182 L8.746593,8.21033414 C8.79011573,8.02975521 8.97969778,7.91592004 9.16964867,7.95930347 C9.35959956,8.00157452 9.47725846,8.18178264 9.4333669,8.36273237 L9.0995697,9.73135005 C9.06194836,9.88671467 8.91662671,9.99127988 8.75655159,9.99127988" id="Fill-6" fill="#002B5C" fill-rule="nonzero"></path>
                <path d="M10.6367334,11.5032854 C10.104871,11.0887325 9.66779949,10.4824768 9.16986998,9.48169134 C9.16433743,9.47019658 9.15511651,9.46203902 9.14810861,9.45165665 L9.2535959,8.9840796 C9.62759629,9.31816915 10.0679873,9.52618718 10.5876782,9.52618718 C11.1191718,9.52618718 11.5676772,9.30815759 11.9468413,8.96071929 L12.0855239,9.51728801 C11.59534,10.4958255 11.1623257,11.0939237 10.6367334,11.5032854 M8.05303251,4.13255055 C8.98729582,4.02909773 10.9181558,3.60119613 12.076303,2.37644831 C12.1290467,2.50029505 12.1828968,2.61450102 12.2371158,2.72277422 C12.5838223,3.49700172 12.9663059,3.86965433 13.1389215,4.00870381 C12.9375367,5.54751805 12.1810526,8.80275908 10.5876782,8.80275908 C9.03671993,8.80275908 8.27765405,5.71623142 8.05303251,4.13255055 M16.9305625,12.3572346 C16.8092153,11.4647223 16.5875444,10.6778877 15.0989196,10.0794187 C14.9237222,10.008967 14.7525819,9.94593121 14.5836547,9.88586183 C14.8801994,8.83242297 15.8063483,4.99502812 14.4368577,2.28300706 C13.3930499,0.215804793 12.5425126,0 10.8506587,0 C9.24806335,0 8.03127115,0.163522188 6.96238245,2.28041147 C5.59510488,4.98872454 6.50760683,8.79274752 6.80304501,9.84544478 C6.59907832,9.91626732 6.38884142,9.99339343 6.17417847,10.0794187 C4.70620849,10.6697301 4.39380382,11.3160321 4.11238143,12.1644193 C3.84017997,12.9853674 3.62072214,16.0337028 3.59674776,16.3785455 C3.5831008,16.567282 3.72473409,16.731175 3.91247195,16.7445238 C4.09652146,16.7504566 4.2628668,16.6151151 4.27614492,16.4263786 C4.3403225,15.5131016 4.55166592,13.006503 4.75895213,12.3809657 C4.99500761,11.6694032 5.20155615,11.2085005 6.42720043,10.7153383 C7.32900611,10.3530681 8.18802674,10.1350385 8.6250982,10.0356645 C8.63911399,10.0412264 8.6501791,10.0508672 8.66493256,10.0545752 C8.6763665,10.0571708 8.6874316,10.0571708 8.6984967,10.058654 C9.1208147,10.8695906 9.63755488,11.6668076 10.4475202,12.2100275 C10.5622284,12.2867829 10.7112385,12.2867829 10.8259467,12.2100275 C11.6414446,11.6634704 12.1600289,10.8592082 12.5838223,10.0427096 C12.5963627,10.0390017 12.6085343,10.0345521 12.6203371,10.0293609 C13.0478188,10.1250269 13.9238059,10.3445397 14.8458976,10.7153383 C16.0272815,11.1907022 16.1512106,11.6838643 16.2555914,12.450305 C16.3699308,13.2883099 16.6126253,16.3978271 16.6152072,16.429345 C16.629223,16.6091823 16.778233,16.7452654 16.9545369,16.7452654 C16.963389,16.7452654 16.9722411,16.7448946 16.981462,16.744153 C17.168831,16.729321 17.3093578,16.5643157 17.2946043,16.37595 C17.2846457,16.2472828 17.0478526,13.2148918 16.9305625,12.3572346" id="Fill-8" fill="#002B5C" fill-rule="nonzero"></path>
                <path d="M14.4236165,14.1390702 C14.2126419,14.1390702 14.0411329,13.9666489 14.0411329,13.7549229 C14.0411329,13.5428261 14.2126419,13.3704047 14.4236165,13.3704047 C14.6345911,13.3704047 14.8061001,13.5428261 14.8061001,13.7549229 C14.8061001,13.9666489 14.6345911,14.1390702 14.4236165,14.1390702 M14.7695853,12.7482046 C14.7699542,12.7415303 14.7736425,12.7355975 14.7736425,12.7285523 C14.7795439,11.7689255 14.7275379,10.6643164 14.2963679,9.74770227 C14.2908353,9.73583671 14.2845651,9.72434195 14.2775572,9.7128472 C13.8408546,9.00758823 13.1098203,8.68610584 12.6155791,8.68610584 C12.5930801,8.68610584 12.5735317,8.69463421 12.5521392,8.69908379 L12.7181157,9.38024084 C12.9855223,9.42214108 13.4100533,9.61977675 13.6888938,10.0588023 C14.0536733,10.8482326 14.0975649,11.8486472 14.0920323,12.7244735 C14.0920323,12.7307771 14.0953519,12.7363391 14.0957207,12.7426427 C13.6700832,12.8824337 13.3595227,13.2806715 13.3595227,13.7549229 C13.3595227,14.3444927 13.8367974,14.8243061 14.4236165,14.8243061 C15.0104357,14.8243061 15.4877103,14.3444927 15.4877103,13.7549229 C15.4877103,13.2873458 15.1860019,12.8931869 14.7695853,12.7482046" id="Fill-10" fill="#477EF0" fill-rule="nonzero"></path>
                <path d="M7.53345228,11.4865253 C7.54894342,10.6726223 7.7890561,9.40931145 8.60418516,9.37445638 L8.74655612,8.70813127 C8.71188547,8.69626572 8.67610831,8.68625416 8.6377493,8.68625416 C7.34571441,8.68625416 6.87139044,10.177977 6.85221094,11.4906041 C6.03413118,11.6604298 5.41669858,12.3953527 5.41669858,13.2737746 L5.41669858,15.2434568 C5.41669858,15.4325641 5.56939697,15.5860748 5.75750367,15.5860748 L6.44685943,15.5860748 C6.63533497,15.5860748 6.78766452,15.4325641 6.78766452,15.2434568 C6.78766452,15.0543495 6.63533497,14.9008389 6.44685943,14.9008389 L6.09830876,14.9008389 L6.09830876,13.2737746 C6.09830876,12.6478665 6.5984513,12.13876 7.21293321,12.13876 C7.82778395,12.13876 8.32792649,12.6478665 8.32792649,13.2737746 L8.32792649,14.9008389 L7.97900699,14.9008389 C7.79090028,14.9008389 7.6382019,15.0543495 7.6382019,15.2434568 C7.6382019,15.4325641 7.79090028,15.5860748 7.97900699,15.5860748 L8.66836274,15.5860748 C8.85683829,15.5860748 9.00916783,15.4325641 9.00916783,15.2434568 L9.00916783,13.2737746 C9.00916783,12.3812623 8.37108038,11.6404067 7.53345228,11.4865253" id="Fill-12" fill="#477EF0" fill-rule="nonzero"></path>
            </g>
        </g>
    </g>
</svg>